# 3ds Max Wavefront OBJ Exporter v0.97b - (c)2007 guruware
# File Created: 08.12.2015 07:48:50

mtllib powerPickup.mtl

#
# object Box001
#

v  -10.0000 0.0000 10.0000
v  -10.0000 0.0000 -10.0000
v  10.0000 0.0000 -10.0000
v  10.0000 0.0000 10.0000
v  -10.0000 20.0000 10.0000
v  10.0000 20.0000 10.0000
v  10.0000 20.0000 -10.0000
v  -10.0000 20.0000 -10.0000
# 8 vertices

vn 0.0000 -1.0000 -0.0000
vn 0.0000 1.0000 -0.0000
vn 0.0000 0.0000 1.0000
vn 1.0000 0.0000 -0.0000
vn 0.0000 0.0000 -1.0000
vn -1.0000 0.0000 -0.0000
# 6 vertex normals

vt 1.0000 0.0000 0.0000
vt 1.0000 1.0000 0.0000
vt 0.0000 1.0000 0.0000
vt 0.0000 0.0000 0.0000
# 4 texture coords

g Box001
usemtl BodyMat
s 2
f 1/1/1 2/2/1 3/3/1 4/4/1 
s 4
f 5/4/2 6/1/2 7/2/2 8/3/2 
s 8
f 1/4/3 4/1/3 6/2/3 5/3/3 
s 16
f 4/4/4 3/1/4 7/2/4 6/3/4 
s 32
f 3/4/5 2/1/5 8/2/5 7/3/5 
s 64
f 2/4/6 1/1/6 5/2/6 8/3/6 
# 6 polygons

#
# object Pyramid001
#

v  0.0000 30.0000 -0.0000
v  -10.0000 20.0000 10.0000
v  10.0000 20.0000 10.0000
v  10.0000 20.0000 -10.0000
v  -10.0000 20.0000 -10.0000
v  0.0000 20.0000 -0.0000
# 6 vertices

vn 0.0000 0.7071 0.7071
vn 0.7071 0.7071 -0.0000
vn 0.0000 0.7071 -0.7071
vn -0.7071 0.7071 -0.0000
vn 0.0000 -1.0000 -0.0000
# 5 vertex normals

vt 0.5000 1.0000 0.0000
vt 0.0000 0.0000 0.0000
vt 1.0000 0.0000 0.0000
vt 0.0000 1.0000 0.0000
vt 0.5000 0.5000 0.0000
vt 1.0000 1.0000 0.0000
# 6 texture coords

g Pyramid001
usemtl PyramidMat
s 4
f 9/5/7 10/6/7 11/7/7 
s 2
f 9/5/8 11/6/8 12/7/8 
s 16
f 9/5/9 12/6/9 13/7/9 
s 32
f 9/5/10 13/6/10 10/7/10 
s 8
f 10/8/11 14/9/11 11/10/11 
f 11/10/11 14/9/11 12/7/11 
f 12/7/11 14/9/11 13/6/11 
f 13/6/11 14/9/11 10/8/11 
# 0 polygons - 8 triangles

#
# object Pyramid002
#

v  0.0000 -10.0000 -0.0000
v  -10.0000 0.0000 -10.0000
v  10.0000 0.0000 -10.0000
v  10.0000 -0.0000 10.0000
v  -10.0000 -0.0000 10.0000
v  0.0000 0.0000 0.0000
# 6 vertices

vn 0.0000 -0.7071 -0.7071
vn 0.7071 -0.7071 -0.0000
vn 0.0000 -0.7071 0.7071
vn -0.7071 -0.7071 -0.0000
vn 0.0000 1.0000 0.0000
# 5 vertex normals

vt 0.5000 1.0000 0.0000
vt 0.0000 0.0000 0.0000
vt 1.0000 0.0000 0.0000
vt 0.0000 1.0000 0.0000
vt 0.5000 0.5000 0.0000
vt 1.0000 1.0000 0.0000
# 6 texture coords

g Pyramid002
usemtl PyramidMat
s 4
f 15/11/12 16/12/12 17/13/12 
s 2
f 15/11/13 17/12/13 18/13/13 
s 16
f 15/11/14 18/12/14 19/13/14 
s 32
f 15/11/15 19/12/15 16/13/15 
s 8
f 16/14/16 20/15/16 17/16/16 
f 17/16/16 20/15/16 18/13/16 
f 18/13/16 20/15/16 19/12/16 
f 19/12/16 20/15/16 16/14/16 
# 0 polygons - 8 triangles

